<?xml version="1.0" standalone="no"?>
<!DOCTYPE svg PUBLIC "-//W3C//DTD SVG 20010904//EN"
 "http://www.w3.org/TR/2001/REC-SVG-20010904/DTD/svg10.dtd">
<svg version="1.0" xmlns="http://www.w3.org/2000/svg"
 width="200.000000pt" height="200.000000pt" viewBox="0 0 200.000000 200.000000"
 preserveAspectRatio="xMidYMid meet">
<metadata>
Created by potrace 1.14, written by Peter Selinger 2001-2017
</metadata>
<g transform="translate(0.000000,200.000000) scale(0.100000,-0.100000)"
fill="#000000" stroke="none">
<path d="M144 1982 c-12 -10 -26 -27 -33 -39 -8 -16 -11 -269 -11 -943 0 -842
1 -924 17 -950 9 -16 27 -33 40 -39 34 -15 1652 -15 1686 0 13 6 31 23 40 39
16 26 17 108 17 950 0 842 -1 924 -17 950 -9 16 -27 33 -40 39 -17 8 -277 11
-851 11 -774 -1 -828 -2 -848 -18z"/>
</g>
</svg>
